Coordinates
version=1
nRows=43
nColumns=12
inDegrees=yes

Units are S.I. units (second, meters, Newtons, ...)
Angles are in degrees

endheader
time	SC_y	SC_z	SC_x	AC_y	AC_z	AC_x	GH_y	GH_z	GH_yy	EL_x	PS_y
       0.0              -45.33          32.57           5.79          49.55         -19.63         -17.23           5.43          47.83         -119.3          12.56          56.26
   0.02012              -45.33          32.56          5.793          49.55         -19.63         -17.22          5.414          47.82         -119.3          12.56          56.25
   0.04024              -45.32          32.56          5.796          49.55         -19.62         -17.22          5.397          47.82         -119.2          12.57          56.24
   0.06035              -45.32          32.56          5.799          49.55         -19.62         -17.21          5.378          47.81         -119.2          12.58          56.24
   0.08047              -45.31          32.56          5.803          49.56         -19.61         -17.21          5.359          47.81         -119.2          12.59          56.23
    0.1006              -45.31          32.56          5.807          49.56         -19.61         -17.21          5.338           47.8         -119.2          12.61          56.22
    0.1207               -45.3          32.55          5.811          49.56          -19.6          -17.2          5.316           47.8         -119.2          12.62          56.21
    0.1408               -45.3          32.55          5.816          49.57          -19.6         -17.19          5.292          47.79         -119.2          12.63          56.21
    0.1609              -45.29          32.55          5.821          49.57         -19.59         -17.19          5.267          47.79         -119.2          12.65           56.2
    0.1811              -45.28          32.54          5.826          49.58         -19.58         -17.18          5.239          47.78         -119.2          12.66          56.19
    0.2012              -45.27          32.54          5.832          49.58         -19.58         -17.17           5.21          47.77         -119.1          12.68          56.17
    0.2213              -45.27          32.54          5.838          49.58         -19.57         -17.17          5.179          47.76         -119.1          12.69          56.16
    0.2414              -45.26          32.53          5.844          49.59         -19.56         -17.16          5.145          47.76         -119.1          12.71          56.15
    0.2615              -45.25          32.53          5.851          49.59         -19.55         -17.15          5.108          47.75         -119.1          12.73          56.14
    0.2817              -45.24          32.52          5.859           49.6         -19.54         -17.14          5.068          47.74         -119.1          12.75          56.12
    0.3018              -45.23          32.52          5.867          49.61         -19.53         -17.13          5.025          47.73         -119.1          12.78           56.1
    0.3219              -45.21          32.51          5.876          49.61         -19.52         -17.12          4.978          47.72         -119.0           12.8          56.09
     0.342               -45.2          32.51          5.886          49.62         -19.51         -17.11          4.927           47.7         -119.0          12.83          56.07
    0.3621              -45.19           32.5          5.897          49.63         -19.49         -17.09          4.872          47.69         -119.0          12.86          56.05
    0.3822              -45.17          32.49          5.909          49.64         -19.48         -17.08          4.811          47.67         -118.9          12.89          56.02
    0.4024              -45.15          32.48          5.922          49.65         -19.46         -17.06          4.744          47.66         -118.9          12.93           56.0
    0.4225              -45.13          32.47          5.936          49.66         -19.44         -17.04           4.67          47.64         -118.9          12.97          55.97
    0.4426              -45.11          32.46          5.951          49.67         -19.42         -17.02          4.589          47.62         -118.8          13.01          55.94
    0.4627              -45.09          32.45          5.969          49.68          -19.4          -17.0          4.498           47.6         -118.8          13.06           55.9
    0.4828              -45.06          32.44          5.988           49.7         -19.38         -16.98          4.398          47.57         -118.7          13.12          55.87
     0.503              -45.03          32.43          6.009          49.71         -19.35         -16.95          4.286          47.55         -118.7          13.18          55.82
    0.5231               -45.0          32.41          6.034          49.73         -19.32         -16.92          4.161          47.51         -118.6          13.25          55.78
    0.5432              -44.97          32.39          6.061          49.75         -19.28         -16.89           4.02          47.48         -118.5          13.32          55.72
    0.5633              -44.92          32.38          6.091          49.78         -19.25         -16.85          3.861          47.44         -118.5          13.41          55.66
    0.5834              -44.88          32.35          6.126           49.8          -19.2          -16.8           3.68           47.4         -118.4          13.51          55.59
    0.6035              -44.82          32.33          6.166          49.83         -19.15         -16.75          3.473          47.35         -118.3          13.62          55.51
    0.6237              -44.76           32.3          6.211          49.87         -19.09          -16.7          3.236          47.29         -118.2          13.75          55.42
    0.6438              -44.69          32.27          6.264          49.91         -19.03         -16.63          2.963          47.22         -118.0           13.9          55.32
    0.6639              -44.61          32.23          6.325          49.95         -18.95         -16.55          2.645          47.14         -117.9          14.07           55.2
     0.684              -44.51          32.18          6.397          50.01         -18.86         -16.46          2.273          47.05         -117.7          14.28          55.06
    0.7041               -44.4          32.13          6.481          50.07         -18.75         -16.36          1.835          46.94         -117.4          14.51          54.89
    0.7243              -44.26          32.06          6.581          50.15         -18.62         -16.23          1.314          46.82         -117.2           14.8          54.69
    0.7444               -44.1          31.99          6.701          50.24         -18.47         -16.08          0.689          46.66         -116.9          15.14          54.46
    0.7645              -43.91           31.9          6.846          50.35         -18.28          -15.9       -0.06652          46.48         -116.5          15.55          54.17
    0.7846              -43.67          31.78          7.024          50.49         -18.06         -15.67        -0.9895          46.25         -116.0          16.05          53.82
    0.8047              -43.37          31.64          7.243          50.65         -17.78          -15.4         -2.129          45.97         -115.4          16.67          53.39
    0.8248               -43.0          31.47          7.516          50.86         -17.43         -15.06         -3.549          45.62         -114.7          17.45          52.85
     0.845              -42.54          31.25           7.86          51.12         -16.99         -14.62         -5.339          45.18         -113.8          18.42          52.17
